<svg xmlns="http://www.w3.org/2000/svg" enable-background="new 0 0 24 24" viewBox="0 0 24 24"><path fill="#20ADFD" d="M16.729,6.474c-0.072-0.131-0.477-0.795-1.182-0.795c-0.317,0-0.772,0.136-1.142,0.793l-0.907,1.606l0.062,0.11l-0.063-0.11l0.001-0.001l-2.412-4.292C11.019,3.662,10.611,3,9.908,3C9.591,3,9.136,3.138,8.766,3.795L0.227,18.958c-0.072,0.131-0.425,0.82-0.075,1.431c0.16,0.278,0.5,0.608,1.25,0.608h7.116c0.01,0,0.016,0.003,0.026,0.003h9.899c0.007,0,0.022-0.001,0.033-0.001h4.104c0.152,0,0.917-0.032,1.272-0.643c0.157-0.278,0.27-0.744-0.107-1.396v-0.001L16.729,6.474z M9.928,4.598l2.765,4.908l-5.318,9.453c-0.097,0.177-0.168,0.382-0.203,0.6L7.171,19.57l0,0.005l0,0.004H1.498L9.928,4.598z M7.151,19.792c0-0.025,0.005-0.048,0.007-0.073C7.156,19.744,7.152,19.767,7.151,19.792L7.151,19.792z M7.24,20.242c-0.049-0.125-0.08-0.265-0.084-0.414C7.158,19.975,7.192,20.112,7.24,20.242z M7.25,20.301l-0.003-0.008c0.001,0.004,0.003,0.006,0.005,0.009c0.001,0.002,0,0.005,0.001,0.007L7.25,20.301z M7.297,20.396l-0.002-0.004l0,0c0.001,0.002,0.002,0.005,0.004,0.008L7.297,20.396z M8.638,19.579l4.858-8.634l4.86,8.634H8.638z M19.724,20.355l0.023-0.045c0.011-0.019,0.019-0.042,0.029-0.063c-0.01,0.023-0.019,0.049-0.032,0.071L19.724,20.355L19.724,20.355z M19.857,19.581c0.004,0.026,0.004,0.056,0.007,0.084c-0.003-0.03-0.003-0.061-0.008-0.09c-0.042-0.235-0.123-0.444-0.237-0.632l-5.309-9.432l-0.002-0.003l1.248-2.23l6.942,12.302H19.857z"/><polygon points="19.615 18.784 19.616 18.786 19.616 18.786"/><polygon points="19.853 19.408 19.852 19.401 19.853 19.411 19.854 19.415"/><polygon points="19.624 18.8 19.616 18.786 19.619 18.792"/></svg>